<svg xmlns="http://www.w3.org/2000/svg" xml:space="preserve" width="1500" height="173" data-id="lg_YzCTytIIV143K56cam" data-version="1" viewBox="0 0 1500 173"><g data-padding="20"><g transform="translate(10 3.084)scale(.96435)"><rect width="586.163" height="229.39" x="364.732" y="-114.996" fill="none" rx="0" ry="0" transform="matrix(.74 0 0 .74 344.22 88.46)"/><g transform="matrix(.74 0 0 .74 166.25 87.431)"><linearGradient id="a" x1="0" x2="1" y1="0" y2="0" gradientUnits="objectBoundingBox"><stop offset="0%" stop-color="#ffa62e"/><stop offset="100%" stop-color="#f71b3d"/></linearGradient><path fill="url(#a)" d="M829.973 184.1q-9.54 0-16.75-1.72-7.2-1.73-11.16-3.45l-3.96-1.73-1.01-2.03.4-2.74q.41-2.74.81-7.51.41-4.77.82-11.27.4-6.49.4-13.8l9.14-1.01q0 14.61 2.03 22.22 2.03 7.62 7.71 10.36 5.69 2.74 16.65 2.74 12.58 0 20.4-5.99 7.81-5.99 7.81-16.34 0-6.7-4.46-11.57-4.47-4.88-11.47-8.94t-14.92-8.12q-8.12-4.26-15.73-9.13-7.62-4.87-12.49-11.27-4.87-6.39-4.87-15.12 0-10.76 6.19-19.29 6.19-8.52 16.75-13.49 10.55-4.98 23.75-4.98 9.13 0 16.14 1.22 7 1.22 10.96 2.54l3.96 1.32.61 1.21-.92 4.67q-.91 4.67-1.92 12.49-1.02 7.81-1.63 17.15l-7.92.81-1.21-1.01.3-2.94q.31-2.95.31-7.62 0-10.76-5.18-14.82t-18.98-4.06q-11.17 0-18.37 5.59-7.21 5.58-7.21 13.9 0 6.09 3.86 10.86 3.85 4.77 10.15 8.63 6.29 3.86 13.6 7.71 8.93 4.47 17.56 9.54 8.63 5.08 14.31 11.58 5.68 6.49 5.68 15.83 0 11.57-6.39 20.5-6.4 8.93-17.66 14.01-11.27 5.07-26.09 5.07" transform="translate(-180.79 -117.31)"/></g><path fill="url(#a)" d="m910.563 160.56.82-49.33q0-5.28-1.83-8.12t-5.69-2.84q-1.62 0-3.35.4l-1.72.41.81-7.51q4.67-.82 9.75-1.83 5.07-1.02 9.43-2.03 4.37-1.02 7.11-1.62l2.74-.61 1.22 2.43q-1.02 2.64-1.93 9.04-.91 6.39-1.73 14.92-.81 8.52-1.21 17.96-.41 9.44-.41 18.37 0 19.9 16.24 19.9 7.11 0 13.3-3.96t11.26-7.61v-47.1q0-6.09-2.23-8.53-2.23-2.43-7.92-2.43-.81 0-2.84.1l-2.03.1.81-7.31q5.48-.81 10.97-1.82 5.48-1.02 10.04-1.93 4.57-.92 7.41-1.52l2.85-.61 1.21 2.43q-1.21 3.05-2.23 13.6-1.01 10.56-1.62 25.58t-.61 31.26q0 4.47 2.23 6.91 2.23 2.43 6.09 2.43 3.25 0 5.99-1.32t4.46-2.54l1.73-1.21 2.84 3.24-1.72 2.44q-1.73 2.44-4.47 5.68-2.74 3.25-5.78 5.69-3.05 2.43-5.69 2.43-16.44 0-18.07-16.44l-1.01-.4q-9.74 7.51-17.56 12.18-7.82 4.66-10.66 4.66-12.99 0-19.99-6.09-7.01-6.09-7.01-17.45" transform="matrix(.74 0 0 .74 32.473 .622)"/><path fill="url(#a)" d="m1068.093 184.1.81-8.32q6.09-1.62 8.73-4.77t2.64-8.42l.81-40.2q0-10.15-4.36-15.63-4.37-5.48-12.49-5.48-4.87 0-9.94 2.03-5.08 2.03-9.04 4.47-3.95 2.43-5.98 4.06-.21 5.27-.51 12.48-.31 7.21-.61 14.72-.31 7.51-.51 13.6t-.2 9.13q0 6.3 1.72 8.84 1.73 2.53 5.59 2.53 1.82 0 4.46-.2l2.64-.2.41.81-1.83 8.73-3.04-.21q-3.05-.2-7.31-.3-4.27-.1-8.12-.1-4.27 0-8.93.1-4.67.1-7.92.2l-3.25.1 1.22-8.32q5.89-.61 8.22-3.04 2.33-2.44 2.33-8.12v-49.54q0-6.9-2.23-9.64t-7.71-2.74h-2.24l-.6-.81.6-6.7q7.11-1.22 13.61-2.54 6.49-1.32 10.65-2.33l4.16-1.02 1.22 1.63-.91 4.06q-.91 4.06-1.32 9.34l.41.6q1.82-1.21 5.68-3.75t8.42-5.28q4.57-2.74 8.83-4.57 4.27-1.82 6.91-1.82 9.74 0 16.54 4.16t9.44 11.87q1.22-1.01 4.97-3.55 3.76-2.54 8.63-5.38t9.44-4.97 7.61-2.13q12.79 0 20.3 7.1 7.51 7.11 7.51 19.08 0 2.64-.4 8.73-.41 6.09-1.02 13.6t-1.01 14.42q-.41 6.9-.41 11.36 0 6.3 1.73 8.84 1.72 2.53 5.58 2.53 1.83 0 4.47-.2l2.64-.2.4.81-1.83 8.73-1.82-.1q-1.83-.11-4.67-.21t-5.99-.2-5.99-.1q-3.25 0-6.7.2t-6.49.41q-3.05.2-4.98.4l-1.93.21 1.02-8.33q5.89-1.01 8.32-3.65 2.44-2.64 2.44-8.32l.81-40.2q0-10.15-4.36-15.63-4.37-5.48-12.49-5.48-4.87 0-9.64 1.83-4.77 1.82-8.73 4.26t-6.19 4.06l-2.23 50.34q0 5.89 1.62 8.63t5.48 2.74q1.83 0 4.47-.2l2.64-.2.4.81-1.62 8.73-1.73-.1q-1.72-.11-4.46-.21t-5.89-.2-5.99-.1q-3.25 0-6.8.4-3.55.41-6.8.82-3.25.4-5.28.81Z" transform="matrix(.74 0 0 .74 32.465 .622)"/><path fill="url(#a)" d="m1179.133 184.1 1.22-9.33q9.54-1.83 12.89-5.38 3.35-3.56 3.35-12.08l.2-85.26q0-6.5-1.52-8.73t-5.99-2.23q-1.42 0-3.96.1-2.53.1-4.56.3l-.41-.81 1.42-8.93q5.28.2 12.49.4 7.2.21 11.67.21 4.26 0 10.86-.51t12.48-1.32l-.81 9.14q-8.32 1.01-11.27 3.35-2.94 2.33-3.34 8.22-.61 11.16-1.12 23.75-.51 12.58-.91 24.87-.41 12.28-.61 22.53-.21 10.25-.21 16.54 0 8.12 1.83 10.96 1.83 2.85 7.11 2.85 2.84 0 5.88-.21 3.05-.2 4.87-.4l.41.81-1.83 9.34q-3.65-.21-8.52-.31l-9.75-.2q-4.87-.1-8.32-.1-4.47 0-11.06.71-6.6.71-12.49 1.72" transform="matrix(.74 0 0 .74 32.465 .63)"/><path fill="url(#a)" d="M1286.323 184.1q-6.7 0-12.69-.6-5.99-.61-9.75-1.22l-3.75-.61-1.83-1.63V54.59q0-5.68-1.82-8.32-1.83-2.64-5.69-2.64-1.62 0-3.04.3l-1.42.31-.61-.61.81-6.7q5.28-.61 10.55-1.62 5.28-1.02 9.75-2.03 4.46-1.02 7.1-1.63l2.64-.61 1.22 2.64q-.81 1.42-1.73 10.35-.91 8.94-1.62 23.76-.71 14.81-1.32 33.9 9.34-6.7 15.94-10.46 6.59-3.75 8.62-3.75 11.58 0 20.41 5.48t13.8 15.22q4.97 9.75 4.97 22.74 0 14.82-6.8 26.9-6.8 12.07-18.27 19.18-11.47 7.1-25.47 7.1m5.68-11.16q13.6 0 21.42-9.24 7.81-9.23 7.81-25.27 0-10.35-3.55-18.78-3.55-8.42-9.64-13.4-6.09-4.97-13.6-4.97-4.06 0-10.26 3.15-6.19 3.14-11.46 7.81l-.61 56.44q3.65 1.82 9.33 3.04 5.69 1.22 10.56 1.22" transform="matrix(.74 0 0 .74 32.465 .622)"/><path fill="#ff851b" d="M544.482-.112c-22.234 0-40.32 18.086-40.32 40.32v8.64a14.4 14.4 0 0 0 14.4 14.4h51.84a14.4 14.4 0 0 0 14.4-14.4v-8.64c0-22.234-18.086-40.32-40.32-40.32m34.56 48.96a8.64 8.64 0 0 1-8.64 8.64h-51.84a8.64 8.64 0 0 1-8.64-8.64v-8.64c.757-18.539 16.007-33.178 34.56-33.178s33.803 14.64 34.56 33.178Z"/><path fill="#ff851b" d="M527.202 25.808a11.52 11.52 0 0 0 0 23.04h34.56a11.52 11.52 0 0 0 0-23.04Zm40.32 11.52a5.76 5.76 0 0 1-5.76 5.76h-34.56a5.76 5.76 0 0 1 0-11.52h34.56a5.76 5.76 0 0 1 5.76 5.76m-.49 31.68h-45.1a14.4 14.4 0 0 0-14.4 15.005l1.21 28.886a88.4 88.4 0 0 0 19.468 51.955 20.736 20.736 0 0 0 32.573 0 88.4 88.4 0 0 0 19.44-51.955l1.21-28.886a14.4 14.4 0 0 0-4.033-10.57 14.4 14.4 0 0 0-10.368-4.435m7.43 43.66a82.94 82.94 0 0 1-18.2 48.586 14.976 14.976 0 0 1-23.56 0 82.66 82.66 0 0 1-18.2-48.585l-1.21-28.887a8.64 8.64 0 0 1 8.64-9.014h45.1a8.64 8.64 0 0 1 8.64 9.014Zm-75.6-40.78c-2.995 0-5.846 1.267-8.063 3.571a14.98 14.98 0 0 0-3.947 10.944l1.44 34.56c.346 8.035 6.048 14.285 12.96 14.285a2.88 2.88 0 0 0 2.88-2.995l-2.39-57.6a2.88 2.88 0 0 0-2.88-2.765m-4.81 48.845-1.44-34.56a9.22 9.22 0 0 1 2.362-6.74q.432-.489 1.152-.95l2.102 50.141a9.5 9.5 0 0 1-4.176-7.89"/><path fill="#ff851b" d="M598.136 75.46a11.52 11.52 0 0 0-8.064-3.572 2.88 2.88 0 0 0-2.88 2.765l-2.39 57.6a2.88 2.88 0 0 0 2.88 2.995c6.912 0 12.614-6.278 12.96-14.256l1.44-34.589a14.98 14.98 0 0 0-3.946-10.944m-3.254 45.274a9.5 9.5 0 0 1-4.147 7.891l2.073-50.17q.692.461 1.152.98c1.613 1.67 2.477 4.118 2.362 6.71Zm-50.4-5.645h5.76v5.76h-5.76Zm-14.4-100.8h5.76v5.76h-5.76Zm11.52 0h5.76v5.76h-5.76Zm11.52 0h5.76v5.76h-5.76Zm2.88 100.8h5.76v5.76h-5.76Zm0-34.56h-23.04a14.4 14.4 0 1 0 0 28.8h23.04a14.4 14.4 0 1 0 0-28.8m0 23.04h-23.04a8.64 8.64 0 1 1 0-17.28h23.04a8.64 8.64 0 1 1 0 17.28"/><path fill="#ff851b" d="M530.082 92.048h17.28v5.76h-17.28Zm23.04 0h5.76v5.76h-5.76Z"/></g><path fill="transparent" stroke="transparent" d="M469.5 0h561v173h-561z"/></g></svg>